# xmcd
#
# Track frame offsets:
#	150
#	16215
#	31935
#	49727
#	65312
#	83402
#	100815
#	116867
#	129112
#	143190
#	159217
#	176267
#
# Disc length: 2567 seconds
#
# Revision: 0
# Processed by: cddbd v1.5.1PL2 Copyright (c) Steve Scherf et al.
# Submitted via: dBpowerAMP V4.0
#
DISCID=870a050c
DTITLE=Wicomicos - Carrying On
DYEAR=1995
DGENRE=Ballad
TTITLE0=Falling Feeling
TTITLE1=Blue Wind
TTITLE2=Tommy On The Dublin Road
TTITLE3=Let Love Get Away
TTITLE4=Carrying On
TTITLE5=Maybe
TTITLE6=She Don't Know
TTITLE7=Happens Every Time
TTITLE8=Give And Take
TTITLE9=Surrounded
TTITLE10=Buffalo Soldier
TTITLE11=How Could I Know
EXTD=Not sure of genre.  Goup named afte the county in Maryland.
EXTT0=
EXTT1=
EXTT2=
EXTT3=
EXTT4=
EXTT5=
EXTT6=
EXTT7=
EXTT8=
EXTT9=
EXTT10=
EXTT11=
PLAYORDER=
